<svg width="150" height="150" viewBox="0 0 150 150" fill="none" xmlns="http://www.w3.org/2000/svg">
<path d="M34.0009 100.1C30.9009 100.1 28.5009 98.9504 27.3509 96.9504C26.2509 95.0004 26.4509 92.4504 28.0509 89.7004L40.8009 67.6004L48.6509 72.1504V41.9004L22.4009 57.0504L30.0509 61.4504L17.3009 83.5504C13.5009 90.1504 13.2509 97.3504 16.6009 103.2C20.0009 109.05 26.5009 112.55 34.0509 112.55H60.0009V106.2V100.15H34.0009V100.1Z" fill="black"/>
<path d="M68.7008 19.3001C70.1508 16.7501 72.3508 15.3001 74.7008 15.3001C77.0508 15.3001 79.2008 16.7501 80.7008 19.3001L95.4008 44.8001L87.7008 49.2501L113.951 64.4001V34.0501L106.151 38.5501L91.4508 13.0501C87.7508 6.6501 81.5008 2.8501 74.7008 2.8501C67.9008 2.8501 61.6508 6.6501 57.9508 13.0501L43.3008 38.4501L54.1508 44.5001L68.7008 19.3001Z" fill="black"/>
<path d="M132.1 83.5504L119.3 61.4004L108.55 67.6004L121.35 89.7504C122.9 92.4504 123.15 95.0504 122.05 97.0004C120.9 99.0004 118.45 100.15 115.4 100.15H86.3V91.0004L60 106.15L86.25 121.3V112.5H115.35C122.9 112.5 129.4 109 132.75 103.15C136.15 97.3504 135.9 90.1504 132.1 83.5504Z" fill="black"/>
<path d="M57.5008 64.4C58.0008 62.8 58.6008 61.5 59.4508 60.5C60.2508 59.5 61.2008 58.85 62.3008 58.4C63.4008 58 64.5008 57.75 65.7508 57.75C67.0008 57.75 68.1508 57.95 69.2008 58.4C70.3008 58.8 71.2508 59.5 72.0508 60.5C72.8508 61.5 73.5008 62.75 74.0008 64.4C74.5008 66 74.7008 68 74.7008 70.4C74.7008 72.85 74.4508 74.9 74.0008 76.5C73.5008 78.15 72.8508 79.45 72.0508 80.4C71.2008 81.4 70.2508 82.05 69.2008 82.5C68.1008 82.9 66.9508 83.15 65.7508 83.15C64.5508 83.15 63.4008 82.95 62.3008 82.5C61.2008 82.1 60.2508 81.4 59.4508 80.4C58.6508 79.4 58.0008 78.1 57.5008 76.5C57.0008 74.85 56.8008 72.8 56.8008 70.4C56.8008 68 57.0008 66 57.5008 64.4ZM61.8008 72.9C61.8508 73.9 62.0008 74.85 62.2508 75.75C62.5008 76.65 62.9008 77.45 63.4008 78.1C63.9508 78.75 64.7008 79.05 65.7008 79.05C66.7008 79.05 67.5008 78.75 68.0508 78.1C68.6008 77.45 69.0008 76.65 69.2508 75.75C69.5008 74.85 69.6508 73.9 69.7008 72.9C69.7508 71.9 69.7508 71.05 69.7508 70.35C69.7508 69.95 69.7508 69.45 69.7508 68.85C69.7508 68.25 69.7008 67.65 69.6008 67C69.5008 66.35 69.4008 65.75 69.2508 65.15C69.1008 64.55 68.8508 64 68.5508 63.5C68.2508 63 67.8508 62.6 67.4008 62.3C66.9508 62 66.3508 61.85 65.7008 61.85C65.0508 61.85 64.4508 62 64.0008 62.3C63.5508 62.6 63.2008 63 62.9008 63.5C62.6008 64 62.4008 64.55 62.2008 65.15C62.0508 65.75 61.9008 66.4 61.8508 67C61.8008 67.65 61.7508 68.25 61.7508 68.85C61.7508 69.45 61.7508 69.95 61.7508 70.35C61.7008 71.05 61.7508 71.9 61.8008 72.9Z" fill="black"/>
<path d="M77.1992 63.75C77.5492 62.55 78.1492 61.5 78.8492 60.6C79.5992 59.7 80.5492 59 81.6492 58.5C82.7992 58 84.0492 57.75 85.5492 57.75C86.6492 57.75 87.7492 57.9 88.7492 58.25C89.7492 58.6 90.6492 59.1 91.3992 59.75C92.1492 60.4 92.7492 61.2 93.2492 62.15C93.6992 63.1 93.9492 64.15 93.9492 65.35C93.9492 66.6 93.7492 67.65 93.3492 68.5C92.9492 69.4 92.4492 70.15 91.7992 70.85C91.1492 71.55 90.3992 72.15 89.5992 72.7C88.7492 73.25 87.9492 73.8 87.0992 74.35C86.2492 74.9 85.4492 75.5 84.6492 76.1C83.8492 76.75 83.1492 77.45 82.5492 78.3H94.0992V82.55H76.1992C76.1992 81.15 76.3992 79.9 76.7992 78.85C77.1992 77.8 77.7492 76.85 78.4492 76.05C79.1492 75.25 79.9492 74.45 80.8992 73.75C81.8492 73.05 82.8492 72.35 83.8992 71.6C84.4492 71.25 84.9992 70.85 85.5992 70.45C86.1992 70.05 86.7492 69.65 87.2492 69.2C87.7492 68.75 88.1492 68.2 88.4992 67.65C88.8492 67.05 88.9992 66.4 88.9992 65.65C88.9992 64.45 88.6492 63.55 87.9492 62.9C87.2492 62.25 86.3992 61.9 85.2992 61.9C84.5992 61.9 83.9492 62.05 83.4492 62.4C82.9492 62.75 82.5492 63.2 82.2492 63.75C81.9492 64.3 81.7492 64.9 81.5992 65.55C81.4492 66.2 81.3992 66.85 81.3992 67.5H76.6492C76.6492 66.25 76.8492 64.95 77.1992 63.75Z" fill="black"/>
<path d="M29.0508 123.25C30.6008 123.25 31.9508 123.45 33.0008 123.95C34.1008 124.4 35.0008 125 35.6508 125.75C36.3508 126.5 36.8508 127.35 37.1508 128.3C37.4508 129.25 37.6008 130.25 37.6008 131.25C37.6008 132.25 37.4508 133.25 37.1508 134.2C36.8508 135.15 36.3508 136 35.6508 136.75C34.9508 137.5 34.1008 138.1 33.0008 138.55C31.9008 139 30.6008 139.25 29.0508 139.25H23.3008V148.15H17.8008V123.25H29.0508ZM27.5508 134.95C28.2008 134.95 28.8008 134.9 29.3508 134.8C29.9508 134.7 30.4508 134.55 30.9008 134.25C31.3508 134 31.7008 133.6 31.9508 133.1C32.2008 132.6 32.3508 131.95 32.3508 131.2C32.3508 130.4 32.2008 129.75 31.9508 129.3C31.7008 128.8 31.3508 128.45 30.9008 128.15C30.4508 127.9 29.9508 127.7 29.3508 127.6C28.7508 127.5 28.1508 127.45 27.5508 127.45H23.3008V134.9H27.5508V134.95Z" fill="black"/>
<path d="M61.7484 123.25V127.85H48.5984V133.2H60.6484V137.45H48.5984V143.5H61.9984V148.1H43.1484V123.2H61.7484V123.25Z" fill="black"/>
<path d="M77.75 136.5V140.75H67.25V136.5H77.75Z" fill="black"/>
<path d="M89.5496 123.25V132.8H99.5996V123.25H105.05V148.15H99.5996V137.4H89.5496V148.15H84.0996V123.25H89.5496Z" fill="black"/>
<path d="M122.75 123.25C124.35 123.25 125.85 123.5 127.25 124C128.65 124.5 129.85 125.3 130.85 126.3C131.85 127.3 132.65 128.6 133.2 130.15C133.75 131.7 134.05 133.5 134.05 135.55C134.05 137.35 133.8 139.05 133.35 140.55C132.9 142.05 132.2 143.4 131.25 144.5C130.3 145.6 129.15 146.5 127.75 147.15C126.35 147.8 124.7 148.1 122.8 148.1H112V123.2H122.75V123.25ZM122.35 143.5C123.15 143.5 123.9 143.35 124.65 143.1C125.4 142.85 126.05 142.4 126.65 141.85C127.25 141.25 127.7 140.5 128.05 139.55C128.4 138.6 128.55 137.45 128.55 136.05C128.55 134.8 128.45 133.65 128.2 132.65C127.95 131.65 127.55 130.75 127 130.05C126.45 129.35 125.7 128.8 124.8 128.4C123.9 128 122.75 127.8 121.4 127.8H117.5V143.5H122.35Z" fill="black"/>
</svg>
