<svg width="150" height="150" viewBox="0 0 150 150" fill="none" xmlns="http://www.w3.org/2000/svg">
<path d="M34.0009 100.1C30.9009 100.1 28.5009 98.9504 27.3509 96.9504C26.2509 95.0004 26.4509 92.4504 28.0509 89.7004L40.8009 67.6004L48.6509 72.1504V41.9004L22.4009 57.0504L30.0509 61.4504L17.3009 83.5504C13.5009 90.1504 13.2509 97.3504 16.6009 103.2C20.0009 109.05 26.5009 112.55 34.0509 112.55H60.0009V106.2V100.15H34.0009V100.1Z" fill="black"/>
<path d="M68.7008 19.3001C70.1508 16.7501 72.3508 15.3001 74.7008 15.3001C77.0508 15.3001 79.2008 16.7501 80.7008 19.3001L95.4008 44.8001L87.7008 49.2501L113.951 64.4001V34.0501L106.151 38.5501L91.4508 13.0501C87.7508 6.6501 81.5008 2.8501 74.7008 2.8501C67.9008 2.8501 61.6508 6.6501 57.9508 13.0501L43.3008 38.4501L54.1508 44.5001L68.7008 19.3001Z" fill="black"/>
<path d="M132.1 83.5504L119.3 61.4004L108.55 67.6004L121.35 89.7504C122.9 92.4504 123.15 95.0504 122.05 97.0004C120.9 99.0004 118.45 100.15 115.4 100.15H86.3V91.0004L60 106.15L86.25 121.3V112.5H115.35C122.9 112.5 129.4 109 132.75 103.15C136.15 97.3504 135.9 90.1504 132.1 83.5504Z" fill="black"/>
<path d="M57.5008 64.5502C57.9508 62.9502 58.6008 61.6502 59.4508 60.6502C60.2508 59.7002 61.2008 59.0002 62.3008 58.5502C63.4008 58.1502 64.5008 57.9502 65.7008 57.9502C66.9508 57.9502 68.1008 58.1502 69.1508 58.5502C70.2508 58.9502 71.2008 59.6502 72.0008 60.6502C72.8008 61.6002 73.4508 62.9002 73.9508 64.5502C74.4008 66.1502 74.6508 68.1502 74.6508 70.5002C74.6508 72.9502 74.4008 74.9502 73.9508 76.6002C73.4508 78.2502 72.8508 79.5502 72.0008 80.5002C71.1508 81.4502 70.2508 82.1502 69.1508 82.6002C68.0508 83.0002 66.9008 83.2002 65.7008 83.2002C64.5008 83.2002 63.3508 83.0002 62.3008 82.6002C61.2008 82.2002 60.3008 81.5002 59.4508 80.5002C58.6508 79.5502 58.0008 78.2002 57.5008 76.6002C57.0508 74.9502 56.8008 72.9502 56.8008 70.5002C56.8008 68.1502 57.0008 66.1502 57.5008 64.5502ZM61.8008 73.0502C61.8508 74.0502 62.0008 75.0002 62.2508 75.9002C62.5008 76.8002 62.9008 77.6002 63.4008 78.2502C63.9508 78.9002 64.7008 79.2002 65.7008 79.2002C66.7008 79.2002 67.5008 78.9002 68.0508 78.2502C68.6008 77.6002 69.0008 76.8002 69.2508 75.9002C69.5008 75.0002 69.6508 74.0502 69.7008 73.0502C69.7508 72.0502 69.7508 71.2002 69.7508 70.5502C69.7508 70.1502 69.7508 69.6502 69.7508 69.0502C69.7508 68.4502 69.7008 67.8502 69.6008 67.2002C69.5008 66.6002 69.4008 65.9502 69.2508 65.3502C69.1008 64.7502 68.8508 64.2002 68.5508 63.7002C68.2508 63.2002 67.8508 62.8002 67.4008 62.5002C66.9508 62.2002 66.3508 62.0502 65.7008 62.0502C65.0508 62.0502 64.4508 62.2002 64.0008 62.5002C63.5508 62.8002 63.2008 63.2002 62.9008 63.7002C62.6008 64.2002 62.4008 64.7502 62.2008 65.3502C62.0508 65.9502 61.9008 66.6002 61.8508 67.2002C61.8008 67.8502 61.7508 68.4502 61.7508 69.0502C61.7508 69.6502 61.7508 70.1502 61.7508 70.5502C61.7008 71.2002 61.7508 72.0502 61.8008 73.0502Z" fill="black"/>
<path d="M82.6992 62.5L81.7492 68.05L81.7992 68.1C82.4492 67.45 83.1992 66.95 83.9492 66.65C84.6992 66.35 85.5992 66.2 86.5492 66.2C87.7492 66.2 88.7992 66.4 89.7492 66.85C90.6992 67.3 91.4492 67.9 92.0992 68.6C92.7492 69.35 93.1992 70.2 93.5492 71.25C93.8992 72.25 94.0492 73.35 94.0492 74.45C94.0492 75.7 93.7992 76.85 93.2992 77.95C92.7992 79.05 92.1492 79.95 91.3492 80.75C90.4992 81.55 89.5492 82.15 88.4992 82.6C87.3992 83.05 86.2492 83.25 84.9992 83.2C83.7992 83.2 82.6992 83.05 81.5992 82.75C80.4992 82.45 79.5492 81.95 78.7492 81.3C77.8992 80.65 77.2492 79.85 76.7492 78.9C76.2492 77.95 75.9992 76.8 75.9492 75.55H80.8992C80.9992 76.65 81.4492 77.55 82.1492 78.2C82.8492 78.85 83.7992 79.2 84.8992 79.2C85.5492 79.2 86.1492 79.05 86.6492 78.8C87.1492 78.55 87.5992 78.2 87.9492 77.75C88.2992 77.3 88.5992 76.8 88.7992 76.25C88.9992 75.7 89.0992 75.1 89.0992 74.5C89.0992 73.85 88.9992 73.3 88.7992 72.75C88.5992 72.2 88.3492 71.7 87.9492 71.3C87.5492 70.9 87.1492 70.55 86.6492 70.35C86.1492 70.1 85.5492 70 84.8992 70C83.9992 70 83.2992 70.15 82.7492 70.45C82.1992 70.75 81.6492 71.25 81.1992 71.95H76.7492L79.1492 58.5H92.7492V62.55H82.6992V62.5Z" fill="black"/>
<path d="M66.5496 123.3C68.0996 123.3 69.4496 123.5 70.4996 124C71.5996 124.45 72.4996 125.05 73.1496 125.8C73.8496 126.55 74.3496 127.4 74.6496 128.35C74.9496 129.3 75.0996 130.3 75.0996 131.3C75.0996 132.3 74.9496 133.3 74.6496 134.25C74.3496 135.2 73.8496 136.05 73.1496 136.8C72.4496 137.55 71.5996 138.15 70.4996 138.6C69.3996 139.05 68.0996 139.3 66.5496 139.3H60.7996V148.2H55.3496V123.35H66.5496V123.3ZM65.0496 135C65.6996 135 66.2996 134.95 66.8496 134.85C67.4496 134.75 67.9496 134.6 68.3996 134.3C68.8496 134.05 69.1996 133.65 69.4496 133.15C69.6996 132.65 69.8496 132.05 69.8496 131.25C69.8496 130.45 69.6996 129.8 69.4496 129.35C69.1996 128.85 68.8496 128.5 68.3996 128.2C67.9496 127.95 67.4496 127.75 66.8496 127.65C66.2496 127.55 65.6496 127.5 65.0496 127.5H60.7996V135H65.0496Z" fill="black"/>
<path d="M91.8484 123.3C93.3984 123.3 94.7484 123.5 95.7984 124C96.8984 124.45 97.7984 125.05 98.4484 125.8C99.1484 126.55 99.6484 127.4 99.9484 128.35C100.248 129.3 100.398 130.3 100.398 131.3C100.398 132.3 100.248 133.3 99.9484 134.25C99.6484 135.2 99.1484 136.05 98.4484 136.8C97.7484 137.55 96.8984 138.15 95.7984 138.6C94.6984 139.05 93.3984 139.3 91.8484 139.3H86.0984V148.2H80.6484V123.35H91.8484V123.3ZM90.3484 135C90.9984 135 91.5984 134.95 92.1484 134.85C92.7484 134.75 93.2484 134.6 93.6984 134.3C94.1484 134.05 94.4984 133.65 94.7484 133.15C94.9984 132.65 95.1484 132.05 95.1484 131.25C95.1484 130.45 94.9984 129.8 94.7484 129.35C94.4984 128.85 94.1484 128.5 93.6984 128.2C93.2484 127.95 92.7484 127.75 92.1484 127.65C91.5484 127.55 90.9484 127.5 90.3484 127.5H86.0984V135H90.3484Z" fill="black"/>
</svg>
