<svg width="150" height="150" viewBox="0 0 150 150" fill="none" xmlns="http://www.w3.org/2000/svg" role="img" aria-labelledby="ric1-title ric1-desc"><title id="ric1-title">Resin Identification Code 1 — PET (Polyethylene Terephthalate)</title><desc id="ric1-desc">Three chasing arrows forming a triangle with the number 1 inside and PET below — the resin identification code for polyethylene terephthalate.</desc>
<path d="M34.0009 100.1C30.9009 100.1 28.5009 98.9504 27.3509 96.9504C26.2509 95.0004 26.4509 92.4504 28.0509 89.7004L40.8009 67.6004L48.6509 72.1504V41.9004L22.4009 57.0504L30.0509 61.4504L17.3009 83.5504C13.5009 90.1504 13.2509 97.3504 16.6009 103.2C20.0009 109.05 26.5009 112.55 34.0509 112.55H60.0009V106.2V100.15H34.0009V100.1Z" fill="currentColor"/>
<path d="M68.7008 19.3001C70.1508 16.7501 72.3508 15.3001 74.7008 15.3001C77.0508 15.3001 79.2008 16.7501 80.7008 19.3001L95.4008 44.8001L87.7008 49.2501L113.951 64.4001V34.0501L106.151 38.5501L91.4508 13.0501C87.7508 6.6501 81.5008 2.8501 74.7008 2.8501C67.9008 2.8501 61.6508 6.6501 57.9508 13.0501L43.3008 38.4501L54.1508 44.5001L68.7008 19.3001Z" fill="currentColor"/>
<path d="M132.1 83.5504L119.3 61.4004L108.55 67.6004L121.35 89.7504C122.9 92.4504 123.15 95.0504 122.05 97.0004C120.9 99.0004 118.45 100.15 115.4 100.15H86.3V91.0004L60 106.15L86.25 121.3V112.5H115.35C122.9 112.5 129.4 109 132.75 103.15C136.15 97.3504 135.9 90.1504 132.1 83.5504Z" fill="currentColor"/>
<path d="M57.6008 64.5998C58.0508 62.9998 58.7008 61.6998 59.5008 60.7498C60.3008 59.7998 61.2508 59.0998 62.3008 58.6498C63.3508 58.2498 64.5008 58.0498 65.7008 58.0498C66.9008 58.0498 68.0508 58.2498 69.1508 58.6498C70.2008 59.0498 71.1508 59.7498 72.0008 60.7498C72.8008 61.6998 73.4508 62.9998 73.9508 64.5998C74.4008 66.1998 74.6508 68.1998 74.6508 70.5498C74.6508 72.9998 74.4008 74.9998 73.9508 76.6498C73.4508 78.2998 72.8508 79.5498 72.0008 80.5498C71.2008 81.4998 70.2508 82.1998 69.1508 82.6498C68.1008 83.0498 66.9508 83.2498 65.7008 83.2498C64.5008 83.2498 63.3508 83.0498 62.3008 82.6498C61.2508 82.2498 60.3008 81.5498 59.5008 80.5498C58.7008 79.5998 58.0508 78.2998 57.6008 76.6498C57.1508 74.9998 56.9008 72.9998 56.9008 70.5498C56.8508 68.1998 57.1008 66.1998 57.6008 64.5998ZM61.8508 73.0498C61.9008 74.0498 62.0508 74.9998 62.3008 75.8998C62.5508 76.7998 62.9508 77.5998 63.4508 78.2498C64.0008 78.8998 64.7508 79.1998 65.7508 79.1998C66.7508 79.1998 67.5508 78.8998 68.1008 78.2498C68.6508 77.5998 69.0508 76.7998 69.3008 75.8998C69.5508 74.9998 69.7008 74.0498 69.7508 73.0498C69.8008 72.0498 69.8008 71.2498 69.8008 70.5498C69.8008 70.1498 69.8008 69.6498 69.8008 69.0498C69.8008 68.4498 69.7508 67.8498 69.6508 67.2498C69.5508 66.6498 69.4508 65.9998 69.3008 65.3998C69.1508 64.7998 68.9008 64.2498 68.6008 63.7498C68.3008 63.2498 67.9008 62.8498 67.4508 62.5498C67.0008 62.2498 66.4008 62.0998 65.7508 62.0998C65.1008 62.0998 64.5008 62.2498 64.0508 62.5498C63.6008 62.8498 63.2508 63.2498 62.9508 63.7498C62.6508 64.2498 62.4508 64.7998 62.2508 65.3998C62.1008 65.9998 62.0008 66.6498 61.9008 67.2498C61.8508 67.8498 61.8008 68.4998 61.8008 69.0498C61.8008 69.6498 61.8008 70.1498 61.8008 70.5498C61.8008 71.2498 61.8008 72.0498 61.8508 73.0498Z" fill="currentColor"/>
<path d="M84.0492 82.7498V67.0498H77.9492V63.3498C78.7992 63.3498 79.6492 63.2998 80.4492 63.1498C81.2492 62.9998 81.9492 62.7498 82.5992 62.3498C83.2492 61.9498 83.7492 61.4498 84.1992 60.8498C84.6492 60.2498 84.9492 59.4498 85.0492 58.5498H88.9492V82.7998H84.0492V82.7498Z" fill="currentColor"/>
<path d="M53.4996 123.1C55.0496 123.1 56.3496 123.3 57.4496 123.8C58.5496 124.25 59.3996 124.85 60.0996 125.6C60.7996 126.35 61.2996 127.2 61.5996 128.15C61.8996 129.1 62.0496 130.1 62.0496 131.1C62.0496 132.1 61.8996 133.05 61.5996 134.05C61.2996 135 60.7996 135.85 60.0996 136.6C59.3996 137.35 58.5496 137.95 57.4496 138.4C56.3496 138.85 55.0496 139.1 53.4996 139.1H47.7496V147.95H42.3496V123.2H53.4996V123.1ZM51.9996 134.75C52.5996 134.75 53.2496 134.7 53.7996 134.6C54.3996 134.5 54.8996 134.35 55.2996 134.05C55.7496 133.8 56.0996 133.4 56.3496 132.9C56.5996 132.4 56.7496 131.8 56.7496 131C56.7496 130.2 56.5996 129.6 56.3496 129.1C56.0996 128.6 55.7496 128.25 55.2996 127.95C54.8496 127.7 54.3496 127.5 53.7996 127.4C53.1996 127.3 52.5996 127.25 51.9996 127.25H47.7996V134.65H51.9996V134.75Z" fill="currentColor"/>
<path d="M86 123.1V127.65H72.95V132.95H84.95V137.15H72.95V143.2H86.3V147.75H67.5V123H86V123.1Z" fill="currentColor"/>
<path d="M90.0996 127.7V123.15H110.35V127.7H102.95V147.85H97.4996V127.7H90.0996Z" fill="currentColor"/>
</svg>
