<svg width="150" height="150" viewBox="0 0 150 150" fill="none" xmlns="http://www.w3.org/2000/svg" role="img" aria-labelledby="ric6-title ric6-desc"><title id="ric6-title">Resin Identification Code 6 — PS (Polystyrene)</title><desc id="ric6-desc">Three chasing arrows forming a triangle with the number 6 inside and PS below — the resin identification code for polystyrene.</desc>
<path d="M34.0009 100.1C30.9009 100.1 28.5009 98.9504 27.3509 96.9504C26.2509 95.0004 26.4509 92.4504 28.0509 89.7004L40.8009 67.6004L48.6509 72.1504V41.9004L22.4009 57.0504L30.0509 61.4504L17.3009 83.5504C13.5009 90.1504 13.2509 97.3504 16.6009 103.2C20.0009 109.05 26.5009 112.55 34.0509 112.55H60.0009V106.2V100.15H34.0009V100.1Z" fill="currentColor"/>
<path d="M68.7008 19.3001C70.1508 16.7501 72.3508 15.3001 74.7008 15.3001C77.0508 15.3001 79.2008 16.7501 80.7008 19.3001L95.4008 44.8001L87.7008 49.2501L113.951 64.4001V34.0501L106.151 38.5501L91.4508 13.0501C87.7508 6.6501 81.5008 2.8501 74.7008 2.8501C67.9008 2.8501 61.6508 6.6501 57.9508 13.0501L43.3008 38.4501L54.1508 44.5001L68.7008 19.3001Z" fill="currentColor"/>
<path d="M132.1 83.5504L119.3 61.4004L108.55 67.6004L121.35 89.7504C122.9 92.4504 123.15 95.0504 122.05 97.0004C120.9 99.0004 118.45 100.15 115.4 100.15H86.3V91.0004L60 106.15L86.25 121.3V112.5H115.35C122.9 112.5 129.4 109 132.75 103.15C136.15 97.3504 135.9 90.1504 132.1 83.5504Z" fill="currentColor"/>
<path d="M57.5008 64.4999C57.9508 62.8999 58.6008 61.5999 59.4508 60.5999C60.2508 59.5999 61.2008 58.9499 62.3008 58.4999C63.4008 58.0999 64.5008 57.8999 65.7508 57.8999C67.0008 57.8999 68.1508 58.0999 69.2008 58.4999C70.3008 58.8999 71.2508 59.5999 72.0508 60.5999C72.8508 61.5999 73.5008 62.8499 74.0008 64.4999C74.4508 66.0999 74.7008 68.0999 74.7008 70.4499C74.7008 72.8999 74.4508 74.8999 74.0008 76.5499C73.5008 78.1999 72.9008 79.4999 72.0508 80.4499C71.2008 81.4499 70.3008 82.0999 69.2008 82.5499C68.1008 82.9499 66.9508 83.1499 65.7508 83.1499C64.5508 83.1499 63.4008 82.9499 62.3008 82.5499C61.2008 82.1499 60.2508 81.4499 59.4508 80.4499C58.6508 79.4499 58.0008 78.1499 57.5008 76.5499C57.0508 74.8999 56.8008 72.8999 56.8008 70.4499C56.8008 68.0999 57.0508 66.1499 57.5008 64.4999ZM61.8008 72.9999C61.8508 73.9999 62.0008 74.9499 62.2508 75.8499C62.5008 76.7499 62.9008 77.5499 63.4008 78.1999C63.9508 78.8499 64.7008 79.1499 65.7008 79.1499C66.7008 79.1499 67.5008 78.8499 68.0508 78.1999C68.6008 77.5499 69.0008 76.7499 69.2508 75.8499C69.5008 74.9499 69.6508 73.9999 69.7008 72.9999C69.7508 71.9999 69.7508 71.1499 69.7508 70.4999C69.7508 70.0999 69.7508 69.5999 69.7508 68.9999C69.7508 68.3999 69.7008 67.7999 69.6008 67.1499C69.5008 66.5499 69.4008 65.8999 69.2508 65.2999C69.1008 64.6999 68.8508 64.1499 68.5508 63.6499C68.2508 63.1499 67.8508 62.7499 67.4008 62.4499C66.9508 62.1499 66.3508 61.9999 65.7008 61.9999C65.0508 61.9999 64.4508 62.1499 64.0008 62.4499C63.5508 62.7499 63.2008 63.1499 62.9008 63.6499C62.6008 64.1499 62.4008 64.6999 62.2008 65.2999C62.0508 65.8999 61.9008 66.5499 61.8508 67.1499C61.8008 67.7999 61.7508 68.3999 61.7508 68.9999C61.7508 69.5999 61.7508 70.0999 61.7508 70.4999C61.7508 71.1999 61.7508 71.9999 61.8008 72.9999Z" fill="currentColor"/>
<path d="M87.7996 62.5498C87.1996 61.9498 86.4996 61.6498 85.6496 61.6498C84.7496 61.6498 84.0496 61.8998 83.4496 62.4498C82.8496 62.9498 82.3996 63.5998 82.0496 64.3498C81.6996 65.0998 81.4496 65.8998 81.2996 66.7498C81.1496 67.5998 81.0496 68.3998 80.9996 69.0498L81.0496 69.0998C81.6996 68.0998 82.4996 67.4498 83.3996 66.9998C84.2996 66.5998 85.3496 66.3498 86.5496 66.3498C87.5996 66.3498 88.5996 66.5998 89.5996 67.0498C90.5996 67.4998 91.4496 68.0998 92.1496 68.8998C92.7996 69.6498 93.2496 70.4998 93.5496 71.4498C93.8496 72.3998 93.9996 73.3498 93.9996 74.3498C93.9996 75.5998 93.7996 76.7498 93.3996 77.8498C92.9996 78.9498 92.3996 79.8498 91.6496 80.6498C90.8996 81.4498 89.9996 82.0998 88.9496 82.5498C87.8996 82.9998 86.7496 83.2498 85.4496 83.2498C83.5996 83.2498 82.0996 82.8998 80.8996 82.1498C79.6996 81.3998 78.7496 80.4498 77.9996 79.2998C77.2996 78.0998 76.7996 76.7998 76.4996 75.2998C76.1996 73.7998 76.0996 72.2998 76.0996 70.7498C76.0996 69.2498 76.2496 67.7498 76.5996 66.2498C76.9496 64.7498 77.4996 63.3998 78.2496 62.1498C78.9996 60.9498 79.9996 59.9498 81.1996 59.1998C82.3996 58.4498 83.8996 58.0498 85.5996 58.0498C86.6496 58.0498 87.5996 58.1998 88.4996 58.4998C89.3996 58.7998 90.1996 59.2498 90.8996 59.7998C91.5996 60.3498 92.1496 61.0498 92.5996 61.8998C93.0496 62.7498 93.3496 63.6998 93.4496 64.7998H88.7496C88.7496 63.8498 88.3496 63.1498 87.7996 62.5498ZM83.6496 70.4998C83.1496 70.7498 82.7496 71.0998 82.3996 71.4998C82.0496 71.8998 81.8496 72.3998 81.6496 72.9498C81.4996 73.4998 81.3996 74.0498 81.3996 74.6498C81.3996 75.1998 81.4996 75.7498 81.6496 76.2998C81.7996 76.8498 82.0996 77.3498 82.3996 77.7498C82.7496 78.1998 83.1496 78.4998 83.6496 78.7498C84.1496 78.9998 84.6996 79.1498 85.2996 79.1498C85.8996 79.1498 86.4496 78.9998 86.8996 78.7498C87.3496 78.4998 87.7496 78.1498 88.0496 77.7498C88.3996 77.3498 88.5996 76.8498 88.7996 76.2998C88.9496 75.7498 89.0496 75.1998 89.0496 74.6498C89.0496 74.0498 88.9996 73.4998 88.8496 72.9498C88.6996 72.3998 88.4496 71.8998 88.1496 71.4998C87.8496 71.0498 87.4496 70.6998 86.9996 70.4498C86.5496 70.1998 85.9496 70.0498 85.3496 70.0498C84.6996 70.1498 84.1496 70.2498 83.6496 70.4998Z" fill="currentColor"/>
<path d="M65.6004 123.3C67.1504 123.3 68.5004 123.5 69.5504 124C70.6504 124.45 71.5504 125.05 72.2004 125.8C72.8504 126.55 73.4004 127.4 73.7004 128.35C74.0004 129.3 74.1504 130.3 74.1504 131.3C74.1504 132.3 74.0004 133.3 73.7004 134.25C73.4004 135.2 72.9004 136.05 72.2004 136.8C71.5004 137.55 70.6504 138.15 69.5504 138.6C68.4504 139.05 67.1504 139.3 65.6004 139.3H59.8504V148.2H54.4004V123.35H65.6004V123.3ZM64.1004 134.95C64.7504 134.95 65.3504 134.9 65.9004 134.8C66.5004 134.7 67.0004 134.55 67.4504 134.25C67.9004 134 68.2504 133.6 68.5004 133.1C68.7504 132.6 68.9004 132 68.9004 131.2C68.9004 130.4 68.7504 129.75 68.5004 129.3C68.2504 128.85 67.9004 128.45 67.4504 128.15C67.0004 127.9 66.5004 127.7 65.9004 127.6C65.3004 127.5 64.7004 127.45 64.1004 127.45H59.8504V134.9H64.1004V134.95Z" fill="currentColor"/>
<path d="M83.8504 142C84.1504 142.6 84.5504 143.05 85.0504 143.4C85.5504 143.75 86.1504 144.05 86.8004 144.2C87.4504 144.35 88.1504 144.45 88.9004 144.45C89.4004 144.45 89.9004 144.4 90.4504 144.35C91.0004 144.25 91.5504 144.1 92.0004 143.9C92.5004 143.65 92.9004 143.35 93.2004 142.95C93.5004 142.55 93.7004 142.05 93.7004 141.4C93.7004 140.75 93.5004 140.2 93.0504 139.75C92.6004 139.35 92.0504 139 91.3504 138.7C90.6504 138.4 89.8504 138.2 89.0004 137.95C88.1004 137.75 87.2504 137.5 86.3004 137.25C85.3504 137 84.4504 136.75 83.6004 136.4C82.7004 136.05 81.9504 135.65 81.2504 135.1C80.5504 134.55 80.0004 133.9 79.5504 133.1C79.1004 132.3 78.9004 131.35 78.9004 130.2C78.9004 128.95 79.1504 127.8 79.7004 126.9C80.2504 125.95 80.9504 125.2 81.8504 124.55C82.7504 123.9 83.7504 123.45 84.8504 123.15C85.9504 122.85 87.1004 122.7 88.2004 122.7C89.5004 122.7 90.7504 122.85 91.9504 123.15C93.1504 123.45 94.2004 123.9 95.1504 124.55C96.1004 125.2 96.8004 126.05 97.3504 127.05C97.9004 128.05 98.1504 129.3 98.1504 130.7H92.8504C92.8004 129.95 92.6504 129.35 92.4004 128.85C92.1504 128.35 91.8004 128 91.3504 127.7C90.9004 127.4 90.4004 127.2 89.8504 127.1C89.3004 127 88.6504 126.9 88.0004 126.9C87.5504 126.9 87.1004 126.95 86.7004 127.05C86.3004 127.15 85.8504 127.3 85.5004 127.55C85.1504 127.8 84.8504 128.05 84.6004 128.4C84.3504 128.75 84.2504 129.2 84.2504 129.7C84.2504 130.2 84.3504 130.6 84.5504 130.9C84.7504 131.2 85.1004 131.5 85.6504 131.75C86.2004 132 86.9504 132.25 87.9004 132.5C88.8504 132.75 90.1004 133.1 91.6504 133.5C92.1004 133.6 92.7504 133.75 93.6004 134C94.4504 134.25 95.2504 134.65 96.0504 135.15C96.8504 135.7 97.5504 136.4 98.1504 137.3C98.7504 138.2 99.0504 139.35 99.0504 140.75C99.0504 141.9 98.8504 142.95 98.4004 143.9C97.9504 144.85 97.3004 145.7 96.4504 146.4C95.6004 147.1 94.5004 147.65 93.2004 148.05C91.9004 148.45 90.4004 148.65 88.7504 148.65C87.4004 148.65 86.0504 148.5 84.7504 148.15C83.4504 147.8 82.3004 147.3 81.3504 146.55C80.3504 145.85 79.6004 144.9 79.0004 143.8C78.4004 142.7 78.1504 141.35 78.1504 139.85H83.4504C83.4004 140.7 83.5504 141.4 83.8504 142Z" fill="currentColor"/>
</svg>
